Coordinates
version=1
nRows=8
nColumns=40
inDegrees=yes

Units are S.I. units (second, meters, Newtons, ...)
If the header above contains a line with 'inDegrees', this indicates whether rotational values are in degrees (yes) or radians (no).

endheader
time	pelvis_tilt	pelvis_list	pelvis_rotation	pelvis_tx	pelvis_ty	pelvis_tz	hip_flexion_r	hip_adduction_r	hip_rotation_r	knee_angle_r	knee_angle_r_beta	ankle_angle_r	subtalar_angle_r	mtp_angle_r	hip_flexion_l	hip_adduction_l	hip_rotation_l	knee_angle_l	knee_angle_l_beta	ankle_angle_l	subtalar_angle_l	mtp_angle_l	lumbar_extension	lumbar_bending	lumbar_rotation	arm_flex_r	arm_add_r	arm_rot_r	elbow_flex_r	pro_sup_r	wrist_flex_r	wrist_dev_r	arm_flex_l	arm_add_l	arm_rot_l	elbow_flex_l	pro_sup_l	wrist_flex_l	wrist_dev_l
      4.60000000	     -7.12061331	     -1.54391935	     -2.01135878	     -0.28877147	      0.99700316	     -0.72398933	     20.26377027	      6.75081553	     -3.39970629	     24.26930810	      0.42357933	      2.96809880	      0.00000000	      0.00000000	     21.44917371	     -4.43645863	      0.68376511	     94.44479845	      1.64837269	     -4.89296570	      0.00000000	      0.00000000	    -21.68218915	      4.33649432	      7.49490876	     89.43769926	    -15.03375854	     20.89497642	     44.19296899	     87.40066046	      0.00000000	      0.00000000	     89.77109094	     -8.41095949	     21.38508695	     42.51075429	     86.42933402	      0.00000000	      0.00000000
      4.60500000	     -6.96845476	     -1.49874929	     -2.03693184	     -0.28822212	      0.99786427	     -0.72392742	     19.90475096	      6.71207918	     -3.35550355	     23.93914933	      0.41781698	      2.79558388	      0.00000000	      0.00000000	     21.32285371	     -4.49803239	      0.54546687	     94.40064992	      1.64760216	     -4.86151016	      0.00000000	      0.00000000	    -21.75528470	      4.31060524	      7.56948295	     89.39018051	    -15.07877040	     21.03147370	     44.11801040	     87.38827872	      0.00000000	      0.00000000	     89.76274550	     -8.44286804	     21.58224206	     42.42993964	     86.46934194	      0.00000000	      0.00000000
      4.61000000	     -6.79620110	     -1.45400444	     -2.06070521	     -0.28768285	      0.99873329	     -0.72396405	     19.52994203	      6.65830488	     -3.36118939	     23.62509630	      0.41233572	      2.63721705	      0.00000000	      0.00000000	     21.16622023	     -4.54310112	      0.40744188	     94.34141470	      1.64656831	     -5.06590832	      0.00000000	      0.00000000	    -21.80084570	      4.29864582	      7.65859271	     89.32456080	    -15.09938789	     21.10724272	     43.94571278	     87.41023086	      0.00000000	      0.00000000	     89.75202692	     -8.43842129	     21.83921486	     42.24763309	     86.46582222	      0.00000000	      0.00000000
      4.61500000	     -6.64887801	     -1.37703938	     -2.09904213	     -0.28716120	      0.99955661	     -0.72409694	     19.15026524	      6.58030042	     -3.25275956	     23.23345621	      0.40550031	      2.43909213	      0.00000000	      0.00000000	     21.02920072	     -4.54953201	      0.25259328	     94.28155000	      1.64552347	     -5.05962913	      0.00000000	      0.00000000	    -21.85569956	      4.27590628	      7.74491176	     89.29310661	    -15.28603678	     21.72141267	     43.97419093	     87.23234219	      0.00000000	      0.00000000	     89.74257409	     -8.56483433	     22.39510253	     42.26356156	     86.02401542	      0.00000000	      0.00000000
      4.62000000	     -6.48469577	     -1.33136014	     -2.11750656	     -0.28666705	      1.00038641	     -0.72411837	     18.82236676	      6.52756229	     -3.27622032	     23.00099575	      0.40144311	      2.33572775	      0.00000000	      0.00000000	     20.89335395	     -4.60952907	      0.12728133	     94.23275642	      1.64467186	     -5.18082170	      0.00000000	      0.00000000	    -21.91761045	      4.24773235	      7.82610607	     89.19415152	    -15.25791676	     21.47328127	     43.83241543	     87.44330439	      0.00000000	      0.00000000	     89.73280423	     -8.48947240	     22.44941414	     42.04838220	     86.31820818	      0.00000000	      0.00000000
      4.62500000	     -6.31803036	     -1.29143834	     -2.14656800	     -0.28611151	      1.00123206	     -0.72398760	     18.42778622	      6.50207673	     -3.23502122	     22.62986415	      0.39496564	      2.14733833	      0.00000000	      0.00000000	     20.72935202	     -4.70485111	     -0.02480252	     94.18053882	      1.64376049	     -5.25145390	      0.00000000	      0.00000000	    -21.97264668	      4.21627795	      7.89352332	     89.09500211	    -15.22783152	     21.44576133	     43.68418523	     87.42795792	      0.00000000	      0.00000000	     89.72273238	     -8.45649982	     22.54696397	     41.85218609	     86.48713059	      0.00000000	      0.00000000
      4.63000000	     -6.16571207	     -1.25752425	     -2.12713238	     -0.28559122	      1.00203541	     -0.72409945	     18.08229430	      6.45591471	     -3.27387730	     22.32905119	      0.38971546	      2.03778273	      0.00000000	      0.00000000	     20.61900751	     -4.74297220	     -0.10782751	     94.15254582	      1.64327192	     -5.34077099	      0.00000000	      0.00000000	    -22.01404334	      4.22102979	      7.96368626	     88.98767399	    -15.33588448	     21.55886283	     43.66650592	     87.36777753	      0.00000000	      0.00000000	     89.70959376	     -8.44975982	     22.85803405	     41.72464665	     86.36860698	      0.00000000	      0.00000000
      4.63500000	     -6.03189881	     -1.17191880	     -2.15840860	     -0.28502855	      1.00284440	     -0.72413627	     17.73742417	      6.36721362	     -3.20470771	     21.99142235	      0.38382273	      1.83259889	      0.00000000	      0.00000000	     20.48830901	     -4.75620198	     -0.29674873	     94.06510344	      1.64174577	     -5.40240705	      0.00000000	      0.00000000	    -22.02846277	      4.15343422	      8.01141592	     88.84688719	    -15.31599691	     21.52564385	     43.54947996	     87.47464483	      0.00000000	      0.00000000	     89.69563967	     -8.43569656	     23.05249452	     41.56730586	     86.44727629	      0.00000000	      0.00000000
